{
    "asset" : {
        "generator" : "Khronos glTF Blender I/O v3.3.32",
        "version" : "2.0"
    },
    "scene" : 0,
    "scenes" : [
        {
            "name" : "Scene",
            "nodes" : [
                0,
                1
            ]
        }
    ],
    "nodes" : [
        {
            "mesh" : 0,
            "name" : "tree.003",
            "rotation" : [
                0.7071068286895752,
                0,
                0,
                0.7071067094802856
            ],
            "scale" : [
                2,
                1.999999761581421,
                1.999999761581421
            ]
        },
        {
            "mesh" : 1,
            "name" : "tree.002",
            "rotation" : [
                0.7071068286895752,
                0,
                0,
                0.7071067094802856
            ],
            "scale" : [
                2,
                1.999999761581421,
                1.999999761581421
            ]
        }
    ],
    "materials" : [
        {
            "doubleSided" : true,
            "name" : "bark03",
            "pbrMetallicRoughness" : {
                "baseColorTexture" : {
                    "index" : 0
                },
                "metallicFactor" : 0,
                "roughnessFactor" : 0.5
            }
        },
        {
            "alphaMode" : "BLEND",
            "doubleSided" : true,
            "name" : "oak leaf",
            "pbrMetallicRoughness" : {
                "baseColorTexture" : {
                    "index" : 1
                },
                "metallicFactor" : 0,
                "roughnessFactor" : 0.5
            }
        }
    ],
    "meshes" : [
        {
            "name" : "tree.003",
            "primitives" : [
                {
                    "attributes" : {
                        "POSITION" : 0,
                        "NORMAL" : 1,
                        "TANGENT" : 2,
                        "TEXCOORD_0" : 3
                    },
                    "indices" : 4,
                    "material" : 0
                }
            ]
        },
        {
            "name" : "tree.002",
            "primitives" : [
                {
                    "attributes" : {
                        "POSITION" : 5,
                        "NORMAL" : 6,
                        "TANGENT" : 7,
                        "TEXCOORD_0" : 8
                    },
                    "indices" : 9,
                    "material" : 1
                }
            ]
        }
    ],
    "textures" : [
        {
            "sampler" : 0,
            "source" : 0
        },
        {
            "sampler" : 0,
            "source" : 1
        }
    ],
    "images" : [
        {
            "mimeType" : "image/png",
            "name" : "oak_bark",
            "uri" : "oak_bark.png"
        },
        {
            "mimeType" : "image/png",
            "name" : "oak_leafs",
            "uri" : "oak_leafs.png"
        }
    ],
    "accessors" : [
        {
            "bufferView" : 0,
            "componentType" : 5126,
            "count" : 3119,
            "max" : [
                0.31731706857681274,
                0.8959699869155884,
                0.2593679130077362
            ],
            "min" : [
                -0.3307068943977356,
                -9.724001870381471e-08,
                -0.34412410855293274
            ],
            "type" : "VEC3"
        },
        {
            "bufferView" : 1,
            "componentType" : 5126,
            "count" : 3119,
            "type" : "VEC3"
        },
        {
            "bufferView" : 2,
            "componentType" : 5126,
            "count" : 3119,
            "type" : "VEC4"
        },
        {
            "bufferView" : 3,
            "componentType" : 5126,
            "count" : 3119,
            "type" : "VEC2"
        },
        {
            "bufferView" : 4,
            "componentType" : 5123,
            "count" : 12846,
            "type" : "SCALAR"
        },
        {
            "bufferView" : 5,
            "componentType" : 5126,
            "count" : 2380,
            "max" : [
                0.36367136240005493,
                0.9631245136260986,
                0.30070775747299194
            ],
            "min" : [
                -0.3848615288734436,
                0.19973865151405334,
                -0.4086419343948364
            ],
            "type" : "VEC3"
        },
        {
            "bufferView" : 6,
            "componentType" : 5126,
            "count" : 2380,
            "type" : "VEC3"
        },
        {
            "bufferView" : 7,
            "componentType" : 5126,
            "count" : 2380,
            "type" : "VEC4"
        },
        {
            "bufferView" : 8,
            "componentType" : 5126,
            "count" : 2380,
            "type" : "VEC2"
        },
        {
            "bufferView" : 9,
            "componentType" : 5123,
            "count" : 3060,
            "type" : "SCALAR"
        }
    ],
    "bufferViews" : [
        {
            "buffer" : 0,
            "byteLength" : 37428,
            "byteOffset" : 0,
            "target" : 34962
        },
        {
            "buffer" : 0,
            "byteLength" : 37428,
            "byteOffset" : 37428,
            "target" : 34962
        },
        {
            "buffer" : 0,
            "byteLength" : 49904,
            "byteOffset" : 74856,
            "target" : 34962
        },
        {
            "buffer" : 0,
            "byteLength" : 24952,
            "byteOffset" : 124760,
            "target" : 34962
        },
        {
            "buffer" : 0,
            "byteLength" : 25692,
            "byteOffset" : 149712,
            "target" : 34963
        },
        {
            "buffer" : 0,
            "byteLength" : 28560,
            "byteOffset" : 175404,
            "target" : 34962
        },
        {
            "buffer" : 0,
            "byteLength" : 28560,
            "byteOffset" : 203964,
            "target" : 34962
        },
        {
            "buffer" : 0,
            "byteLength" : 38080,
            "byteOffset" : 232524,
            "target" : 34962
        },
        {
            "buffer" : 0,
            "byteLength" : 19040,
            "byteOffset" : 270604,
            "target" : 34962
        },
        {
            "buffer" : 0,
            "byteLength" : 6120,
            "byteOffset" : 289644,
            "target" : 34963
        }
    ],
    "samplers" : [
        {
            "magFilter" : 9729,
            "minFilter" : 9987
        }
    ],
    "buffers" : [
        {
            "byteLength" : 295764,
            "uri" : "tree.bin"
        }
    ]
}
